<svg width="100" height="101" viewBox="0 0 100 101" fill="none" xmlns="http://www.w3.org/2000/svg">
    <style>
        path.c { fill: url(#cover_blue) }
        @media (prefers-color-scheme: dark) {
            path.c { fill: white; stroke: black }
        }
    </style>
    <path class="c" d="M41.8963 87.9202C37.2456 87.9202 32.7824 87.1701 28.5068 85.6698C24.3062 84.0946 20.5931 81.7693 17.3676 78.6938C14.2171 75.5433 11.7043 71.6427 9.82898 66.992C7.9537 62.2663 7.01606 56.7905 7.01606 50.5646C7.01606 44.4136 7.99121 38.9753 9.9415 34.2496C11.8918 29.4489 14.4797 25.4358 17.7052 22.2103C21.0057 18.9098 24.7562 16.3969 28.9569 14.6717C33.2325 12.9464 37.6957 12.0838 42.3464 12.0838C47.2221 12.0838 51.5728 13.0589 55.3984 15.0092C59.2239 16.8845 62.4494 19.1348 65.0748 21.7602L54.9483 34.1371C53.148 32.5619 51.2727 31.2867 49.3224 30.3115C47.4472 29.2614 45.2718 28.7363 42.7965 28.7363C40.6211 28.7363 38.5583 29.2239 36.608 30.199C34.7327 31.1741 33.045 32.5619 31.5448 34.3621C30.1195 36.1624 28.9569 38.3752 28.0567 41.0006C27.2316 43.626 26.819 46.589 26.819 49.8895C26.819 56.7905 28.2443 62.0788 31.0947 65.7543C34.0201 69.4299 37.8457 71.2677 42.5714 71.2677C45.4218 71.2677 47.9347 70.6676 50.1101 69.4674C52.3604 68.1922 54.2732 66.692 55.8484 64.9667L65.9749 77.1186C62.8245 80.7191 59.1864 83.4195 55.0608 85.2198C51.0102 87.02 46.622 87.9202 41.8963 87.9202Z" />
    <path d="M81.7322 46.8889C78.4317 46.8889 75.7313 45.7637 73.631 43.5134C71.5306 41.263 70.4805 38.4876 70.4805 35.1871C70.4805 31.8866 71.5306 29.1112 73.631 26.8609C75.7313 24.6105 78.4317 23.4854 81.7322 23.4854C85.0327 23.4854 87.7331 24.6105 89.8334 26.8609C91.9337 29.1112 92.9839 31.8866 92.9839 35.1871C92.9839 38.4876 91.9337 41.263 89.8334 43.5134C87.7331 45.7637 85.0327 46.8889 81.7322 46.8889ZM81.7322 81.7691C78.4317 81.7691 75.7313 80.644 73.631 78.3936C71.5306 76.1433 70.4805 73.3679 70.4805 70.0674C70.4805 66.7669 71.5306 63.9915 73.631 61.7411C75.7313 59.4908 78.4317 58.3656 81.7322 58.3656C85.0327 58.3656 87.7331 59.4908 89.8334 61.7411C91.9337 63.9915 92.9839 66.7669 92.9839 70.0674C92.9839 73.3679 91.9337 76.1433 89.8334 78.3936C87.7331 80.644 85.0327 81.7691 81.7322 81.7691Z" fill="#FFB61A"/>
    <defs>
    <linearGradient id="cover_blue" x1="36.4956" y1="12.0837" x2="36.4956" y2="87.9201" gradientUnits="userSpaceOnUse">
        <stop stop-color="#166EF6"/>
        <stop offset="1" stop-color="#0E50C5"/>
        </linearGradient>
    </defs>
</svg>
