<svg fill="none" height="40" viewBox="0 0 60 40" width="60" xmlns="http://www.w3.org/2000/svg" xmlns:xlink="http://www.w3.org/1999/xlink"><linearGradient id="a" gradientUnits="userSpaceOnUse" x1="30" x2="30" y1=".331299" y2="23.8613"><stop offset="0" stop-color="#1671fb"/><stop offset="1" stop-color="#0d4cbf"/></linearGradient><path d="m57.1509 33.4683c-.5866 0-1.0666-.2-1.44-.6-.3733-.4-.56-.8933-.56-1.48 0-.5866.1867-1.08.56-1.4799.3734-.4001.8534-.6001 1.44-.6001.5867 0 1.0667.2 1.44.6001.3734.3999.56.8933.56 1.4799 0 .5867-.1866 1.08-.56 1.48-.3733.4-.8533.6-1.44.6zm0 6.2c-.5866 0-1.0666-.2-1.44-.6-.3733-.4-.56-.8933-.56-1.48 0-.5866.1867-1.08.56-1.48.3734-.4.8534-.6 1.44-.6.5867 0 1.0667.2 1.44.6.3734.4.56.8934.56 1.48 0 .5867-.1866 1.08-.56 1.48-.3733.4-.8533.6-1.44.6z" fill="#ffb61a"/><g fill="#000"><path d="m8.74666 39.6683c-.82666 0-1.62-.1333-2.38-.4-.74667-.28-1.40667-.6933-1.98-1.24-.56-.56-1.00667-1.2533-1.34-2.08-.33333-.84-.5-1.8133-.5-2.92 0-1.0933.17333-2.06.52-2.9.34667-.8533.80667-1.5666 1.38-2.1399.58667-.5867 1.25334-1.0334 2-1.34.76-.3067 1.55333-.46 2.38-.46.86667 0 1.64004.1733 2.32004.52.68.3333 1.2533.7333 1.72 1.2l-1.8 2.1999c-.32-.28-.6534-.5066-1-.6799-.33337-.1867-.72004-.28-1.16004-.28-.38666 0-.75333.0866-1.1.2599-.33333.1734-.63333.42-.9.74-.25333.32-.46.7134-.62 1.18-.14667.4667-.22.9934-.22 1.58 0 1.2267.25334 2.1667.76 2.82.52.6534 1.2.98 2.04.98.50667 0 .95334-.1066 1.34004-.32.4-.2266.74-.4933 1.02-.8l1.8 2.16c-.56.64-1.2067 1.12-1.94 1.44-.72.32-1.50004.48-2.34004.48z"/><path d="m18.9854 39.6683c-.64 0-1.26-.1133-1.86-.34-.6-.24-1.1333-.58-1.6-1.02-.4533-.4533-.82-1.0066-1.1-1.66-.2667-.6533-.4-1.3933-.4-2.22 0-.8266.1333-1.5666.4-2.22.28-.6533.6467-1.2 1.1-1.64.4667-.4533 1-.7933 1.6-1.02.6-.2399 1.22-.3599 1.86-.3599s1.2533.12 1.84.3599c.6.2267 1.1267.5667 1.58 1.02.4667.44.84.9867 1.12 1.64.28.6534.42 1.3934.42 2.22 0 .8267-.14 1.5667-.42 2.22-.28.6534-.6533 1.2067-1.12 1.66-.4533.44-.98.78-1.58 1.02-.5867.2267-1.2.34-1.84.34zm0-2.76c.52 0 .8867-.22 1.1-.66.2267-.4533.34-1.06.34-1.82s-.1133-1.36-.34-1.8c-.2133-.4533-.58-.68-1.1-.68s-.8933.2267-1.12.68c-.2133.44-.32 1.04-.32 1.8s.1067 1.3667.32 1.82c.2267.44.6.66 1.12.66z"/><path d="m27.9015 39.4283-3.28-9.9999h3.44l1.08 4.3599c.24 1 .48 2.04.72 3.12h.08c.24-1.08.48-2.12.72-3.12l1.08-4.3599h3.28l-3.16 9.9999z"/><path d="m40.8651 39.6683c-.7333 0-1.4133-.1133-2.04-.34-.6267-.24-1.1733-.58-1.64-1.02-.4533-.4533-.8133-1.0066-1.08-1.66-.2667-.6533-.4-1.3933-.4-2.22 0-.8133.1333-1.54.4-2.18.28-.6533.64-1.2066 1.08-1.66.4533-.4533.9667-.8 1.54-1.04.5733-.2399 1.1667-.3599 1.78-.3599.7333 0 1.3733.1266 1.92.3799.5467.2534 1 .6 1.36 1.04s.6267.9534.8 1.54c.1867.5867.28 1.2134.28 1.88 0 .3067-.02.5934-.06.86-.0267.2667-.0533.46-.08.58h-5.7c.16.6.4467 1.02.86 1.26.4133.2267.9.34 1.46.34.3467 0 .68-.0466 1-.14.3333-.1066.68-.26 1.04-.46l1.12 2.04c-.5467.3867-1.1533.68-1.82.88-.6533.1867-1.26.28-1.82.28zm-1.88-6.44h2.96c0-.3866-.1-.72-.3-1-.1867-.2933-.54-.44-1.06-.44-.3867 0-.7267.1134-1.02.34-.28.2267-.4733.5934-.58 1.1z"/><path d="m46.7524 39.4283v-9.9999h2.8l.24 1.7199h.08c.3734-.68.8134-1.1733 1.32-1.48.52-.3199 1.0267-.4799 1.52-.4799.3067 0 .5534.02.74.06.1867.0266.3534.0733.5.14l-.56 2.9599c-.1866-.04-.3666-.0733-.54-.1-.16-.04-.3533-.06-.58-.06-.36 0-.74.1267-1.14.38-.3866.24-.7.6734-.94 1.3v5.56z"/></g><g fill="url(#a)"><path d="m30.3001 2.26913c7.909 3.18718 13.8728 12.28237 14.1729 21.56487-1.9093-1.8137-4.4445-2.8512-7.0799-2.8512-2.3774 0-4.6677.8496-6.4968 2.3467v.0611h-.5962z"/><path d="m29.7011 23.3906v-21.11065c-8.0315 3.47646-13.8757 12.38255-14.1729 21.55465 1.9099-1.8149 4.4445-2.8518 7.0793-2.8518 2.3763 0 4.666.849 6.4939 2.345v.0628z"/><path d="m30.5729 1.72701c.1076.00284.2169.00341.3245.00683v-.5051c0-.495983-.402-.897441-.8974-.897441s-.8974.402028-.8974.897441v.50567c.119-.00342.2391-.00456.3587-.00797-13.0425.23461-24.35285 8.92436-27.93352 21.41736 1.80172-1.3997 4.00262-2.161 6.29521-2.161 2.64731 0 5.19501 1.0472 7.10721 2.8785.287-9.4152 6.2907-18.56786 14.5459-22.13543.1748-.00456.3485-.01139.5239-.01139.1856 0 .3696.00683.5546.01196 8.1163 3.28911 14.2282 12.62286 14.5175 22.13426 1.9116-1.8307 4.4587-2.8785 7.106-2.8785 2.2915 0 4.4924.7608 6.2941 2.1605-3.5778-12.4811-14.871-21.16685-27.8993-21.41569z"/></g></svg>